<?xml version="1.0" encoding="UTF-8"?>
<svg version="1.1" xmlns="http://www.w3.org/2000/svg" width="152" height="152">
<path d="M0 0 C14.128125 -0.0825 28.25625 -0.165 42.8125 -0.25 C47.25436768 -0.28641602 51.69623535 -0.32283203 56.27270508 -0.36035156 C61.7454834 -0.37841797 61.7454834 -0.37841797 64.31694031 -0.3817749 C66.09233117 -0.38787066 67.86770669 -0.40184129 69.64299011 -0.42230225 C82.42055489 -0.56205917 94.44829266 -0.6247736 104.22698975 8.85620117 C111.62122328 17.79678635 112.91094881 26.92805245 112.796875 38.1875 C112.80093142 39.62134388 112.80676661 41.05518369 112.81427002 42.48901367 C112.82304766 45.47452602 112.81048479 48.4589514 112.78222656 51.44433594 C112.74804045 55.23716283 112.76776113 59.02744138 112.80366135 62.82017517 C112.82552881 65.77521348 112.81835877 68.72966519 112.80289459 71.6847229 C112.79894299 73.08151566 112.80362113 74.47836488 112.81777191 75.87509155 C112.90105208 86.40026718 111.06292679 94.87826636 104.22698975 103.14379883 C93.73855566 113.31290194 80.49041964 112.54732384 66.89453125 112.390625 C65.17818726 112.38473197 63.46183604 112.3806586 61.7454834 112.37841797 C55.43437815 112.35758413 49.12342755 112.30173924 42.8125 112.25 C21.6203125 112.12625 21.6203125 112.12625 0 112 C0 75.04 0 38.08 0 0 Z M17 19 C17 43.42 17 67.84 17 93 C26.5596875 93.12375 26.5596875 93.12375 36.3125 93.25 C39.29470581 93.30462402 39.29470581 93.30462402 42.3371582 93.36035156 C52.98892134 93.4734304 61.57468321 92.8278483 70.9375 87.25 C75.15834844 82.64543806 77.2292293 78.16098835 77.4375 71.875 C77.18272045 66.66794302 76.07391122 63.08351267 72.3125 59.3046875 C69.10974279 56.10360456 69.10974279 56.10360456 65 55 C65.7425 54.278125 66.485 53.55625 67.25 52.8125 C71.8517451 48.10616978 75.06482217 44.55290288 75.375 37.8125 C75.30567393 32.49172425 73.43562059 28.9871281 70 25 C63.20592854 19.38750618 56.02948315 18.70008814 47.56640625 18.8046875 C46.3974884 18.80770874 46.3974884 18.80770874 45.20495605 18.81079102 C42.32407656 18.82116953 39.44328169 18.84909142 36.5625 18.875 C30.106875 18.91625 23.65125 18.9575 17 19 Z " fill="#553A89" transform="translate(23,19)"/>
<path d="M0 0 C2.56364483 -0.10845031 5.12266279 -0.18749744 7.6875 -0.25 C8.40873047 -0.28351563 9.12996094 -0.31703125 9.87304688 -0.3515625 C13.78330509 -0.42298274 15.5702023 -0.27500248 18.9609375 1.89453125 C21.08884075 4.09173403 21.90809043 4.96698415 22 8 C20.91970563 11.7810303 20.35693737 12.76204175 17 15 C15.09887695 15.22705078 15.09887695 15.22705078 12.98828125 15.1953125 C12.23095703 15.18886719 11.47363281 15.18242188 10.69335938 15.17578125 C9.90767578 15.15902344 9.12199219 15.14226562 8.3125 15.125 C7.51521484 15.11597656 6.71792969 15.10695313 5.89648438 15.09765625 C3.930861 15.07411585 1.96539225 15.03824547 0 15 C0 10.05 0 5.1 0 0 Z " fill="#563B8A" transform="translate(59,81)"/>
<path d="M0 0 C2.58445773 -0.1081866 5.16437352 -0.18737237 7.75 -0.25 C8.47960937 -0.28351562 9.20921875 -0.31703125 9.9609375 -0.3515625 C13.53084849 -0.41646997 15.56841859 -0.31757878 18.484375 1.828125 C20.54909509 4.7868476 20.58903864 6.46576814 20 10 C18.484375 12.171875 18.484375 12.171875 16 14 C13.10550051 14.2906124 10.62050065 14.38186045 7.75 14.25 C6.63238281 14.22292969 6.63238281 14.22292969 5.4921875 14.1953125 C3.66090299 14.14835649 1.83028351 14.07661652 0 14 C0 9.38 0 4.76 0 0 Z " fill="#563B8A" transform="translate(59,53)"/>
</svg>
