<?xml version="1.0" encoding="UTF-8"?>
<svg version="1.1" xmlns="http://www.w3.org/2000/svg" width="370" height="370">
<path d="M0 0 C0.72460419 0.28194214 1.44920837 0.56388428 2.19577026 0.85437012 C2.96647858 1.16112671 3.73718689 1.4678833 4.53125 1.78393555 C5.35231232 2.10543579 6.17337463 2.42693604 7.01931763 2.75817871 C9.69225883 3.80659777 12.36178082 4.86342964 15.03125 5.9206543 C16.87597886 6.64656676 18.72086946 7.37206833 20.56591797 8.09716797 C26.05803171 10.25826704 31.54534197 12.4313575 37.03125 14.6081543 C37.83373169 14.9263916 38.63621338 15.24462891 39.4630127 15.57250977 C65.86782396 26.04700758 65.86782396 26.04700758 74.03125 29.6081543 C71.32289935 32.31650495 68.20544517 33.05843013 64.64404297 34.22192383 C63.88297241 34.47580872 63.12190186 34.7296936 62.33776855 34.99127197 C59.81817923 35.83020515 57.29586115 36.66059849 54.7734375 37.4909668 C53.02734306 38.07051191 51.28142433 38.65058666 49.53567505 39.23117065 C44.93755591 40.75878306 40.33707986 42.27917336 35.73608398 43.7980957 C31.0426695 45.34893493 26.35150872 46.90655972 21.66015625 48.46362305 C12.45271967 51.51846319 3.2427801 54.56568197 -5.96875 57.6081543 C-4.70853515 58.24566413 -3.44744823 58.88145022 -2.18600464 59.51652527 C-1.48383253 59.87076663 -0.78166042 60.22500799 -0.05821037 60.58998394 C2.93017096 62.04618829 5.99001773 63.26267932 9.0859375 64.47143555 C9.75857635 64.73546677 10.43121521 64.99949799 11.12423706 65.27153015 C12.59924784 65.8500991 14.0749111 66.42700675 15.55114746 67.00244141 C18.8720017 68.29718383 22.18940415 69.60067326 25.50708008 70.90353394 C27.34986381 71.62716859 29.19280493 72.35040251 31.03588867 73.07327271 C43.29771476 77.8844331 55.53841987 82.74891298 67.78125 87.6081543 C72.11103126 89.32637283 76.44085989 91.04447192 80.77075577 92.76240158 C82.02941816 93.26179366 83.28807242 93.76120625 84.5467186 94.26063919 C93.74353313 97.90983187 102.94294024 101.55242635 112.14391327 105.19112015 C116.1085741 106.75926413 120.0728175 108.32846313 124.03705215 109.8976841 C127.19188622 111.14639103 130.34700141 112.39437676 133.50280762 113.640625 C140.11528319 116.25262529 146.72307376 118.87554218 153.32104492 121.52398682 C155.75259182 122.49668224 158.18920599 123.45534891 160.62695312 124.41235352 C161.89242102 124.92301271 163.15744784 125.43476734 164.421875 125.94799805 C165.43797852 126.35268311 166.45408203 126.75736816 167.50097656 127.17431641 C170.63974472 128.95297189 172.05542003 130.58173371 174.03125 133.6081543 C174.51226807 136.98078918 174.51226807 136.98078918 174.48535156 140.87695312 C174.48593567 141.58969391 174.48651978 142.30243469 174.48712158 143.03677368 C174.4843467 145.38008236 174.45328554 147.72210059 174.421875 150.06518555 C174.41441043 151.69471034 174.40871851 153.32424413 174.40472412 154.95378113 C174.38948466 159.23327617 174.35021791 163.51222428 174.3059082 167.79150391 C174.26491876 172.16195274 174.2467053 176.53249034 174.2265625 180.90307617 C174.18372156 189.47168595 174.11549127 198.039852 174.03125 206.6081543 C171.11112915 203.75837742 168.88284356 201.04913513 166.74609375 197.56518555 C165.83525024 196.09154541 165.83525024 196.09154541 164.90600586 194.58813477 C163.94706421 193.02023193 163.94706421 193.02023193 162.96875 191.4206543 C161.61563511 189.23120185 160.26146345 187.04240216 158.90625 184.85424805 C158.24367188 183.78287598 157.58109375 182.71150391 156.8984375 181.60766602 C154.46750415 177.70253432 151.98120045 173.83617856 149.46875 169.9831543 C144.79632903 162.80610039 140.18972579 155.5888745 135.59814453 148.35986328 C132.30373873 143.17502527 129.00185496 137.9951077 125.6875 132.82299805 C125.32456345 132.25654572 124.96162689 131.69009338 124.58769226 131.10647583 C122.81704253 128.34336331 121.04542257 125.58087824 119.27270508 122.8190918 C118.63228271 121.82006836 117.99186035 120.82104492 117.33203125 119.79174805 C116.48378784 118.47001587 116.48378784 118.47001587 115.6184082 117.12158203 C114.05065435 114.63888308 112.53797164 112.12821981 111.03125 109.6081543 C111.02905016 110.9513302 111.02905016 110.9513302 111.02680588 112.32164097 C110.98974851 134.11351095 110.93074791 155.90522526 110.84734726 177.69696903 C110.80754396 188.23531918 110.775158 198.77359451 110.76025391 209.31201172 C110.74724411 218.49768277 110.72029656 227.68318929 110.67663693 236.86876768 C110.65400707 241.73214616 110.63834024 246.5953216 110.63936615 251.4587574 C110.64011186 256.03807601 110.62219695 260.61694551 110.59008217 265.19614792 C110.58157611 266.87508407 110.57983805 268.55407055 110.58544731 270.23301888 C110.59209841 272.53010045 110.57414235 274.8257577 110.55023193 277.12269592 C110.54654476 278.40675355 110.54285759 279.69081118 110.53905869 281.01377964 C109.8344316 286.00127557 108.17286977 289.85539853 104.15605259 293.14286327 C95.04857944 297.30602909 85.52799678 300.35335005 76.03686523 303.50976562 C74.01040863 304.18969774 71.98415872 304.87024617 69.95809937 305.55136108 C64.47925932 307.39088577 58.99725945 309.2208088 53.51437259 311.04823136 C48.93084477 312.576669 44.3487403 314.10935011 39.76657635 315.64187068 C28.95718787 319.25681965 18.1450567 322.86347695 7.33129883 326.46533203 C-3.81566541 330.17836958 -14.95734648 333.90694813 -26.09664494 337.64291364 C-35.67415372 340.85436704 -45.255109 344.05538092 -54.83883518 347.24823207 C-60.55707847 349.15345452 -66.27387334 351.06276705 -71.98727608 352.98246193 C-77.35711125 354.78628555 -82.73112777 356.57704737 -88.10861588 358.3579216 C-90.07857673 359.01274198 -92.04701765 359.67215593 -94.01377296 360.33654213 C-96.70359829 361.24437751 -99.39847431 362.13529482 -102.0952301 363.02229309 C-102.86761963 363.28735792 -103.64000916 363.55242276 -104.43580443 363.82551986 C-111.60871897 366.14796469 -118.45228407 366.6747205 -125.55419922 363.80737305 C-126.55329315 363.41275879 -127.55238708 363.01814453 -128.58175659 362.61157227 C-130.16163864 361.96019287 -130.16163864 361.96019287 -131.7734375 361.2956543 C-132.89203156 360.84851074 -134.01062561 360.40136719 -135.16311646 359.94067383 C-138.72932314 358.51090333 -142.28639605 357.05979045 -145.84375 355.6081543 C-148.19475669 354.66276051 -150.54631511 353.71873757 -152.8984375 352.77612305 C-158.5564612 350.50368438 -164.2009575 348.19974585 -169.84118652 345.88354492 C-172.80669549 344.67423858 -175.7808263 343.48951618 -178.75878906 342.3112793 C-180.47738337 341.61899241 -182.19581923 340.926312 -183.9140625 340.2331543 C-185.06659012 339.78721924 -185.06659012 339.78721924 -186.24240112 339.33227539 C-186.94631989 339.04433105 -187.65023865 338.75638672 -188.37548828 338.4597168 C-189.27909592 338.10127686 -189.27909592 338.10127686 -190.20095825 337.7355957 C-192.96394791 335.97344869 -194.2179222 334.43336688 -195.96875 331.6081543 C-196.57057116 328.03105138 -196.51252594 324.48653051 -196.4834137 320.86621094 C-196.49035922 319.77107461 -196.49730475 318.67593828 -196.50446075 317.547616 C-196.522785 313.87097485 -196.51245088 310.19497498 -196.50219727 306.51831055 C-196.50925291 303.88532019 -196.51799642 301.25233388 -196.52830505 298.61935425 C-196.54995058 292.206065 -196.54981689 285.79295316 -196.54167951 279.37963939 C-196.53538078 274.16763644 -196.53651536 268.95568525 -196.54295158 263.74368286 C-196.54385324 263.00200711 -196.54475489 262.26033136 -196.54568387 261.49618059 C-196.54753506 259.98950091 -196.54939762 258.48282123 -196.55127143 256.97614157 C-196.56785162 242.84654678 -196.55912864 228.71705182 -196.54228585 214.58746302 C-196.52758655 201.65801839 -196.54222005 188.7288061 -196.57105602 175.79939139 C-196.60044121 162.5249279 -196.61142502 149.25057167 -196.60187382 135.97607708 C-196.60085126 134.47492665 -196.59985665 132.9737762 -196.5988903 131.47262573 C-196.59841391 130.73402268 -196.59793752 129.99541963 -196.5974467 129.23443466 C-196.59528151 124.02841032 -196.60509206 118.82248743 -196.61966133 113.6164856 C-196.63899547 106.61010852 -196.63211966 99.60417114 -196.60746193 92.59781265 C-196.60243864 90.02304426 -196.60598281 87.44824315 -196.61861038 84.87350082 C-196.63445842 81.36519658 -196.61966574 77.8583329 -196.59693909 74.35009766 C-196.60877482 73.32529832 -196.62061054 72.30049898 -196.63280493 71.24464512 C-196.57370358 66.7703234 -196.49092145 64.35594818 -193.88313007 60.62136936 C-190.63075665 58.37467298 -187.4262694 56.91227744 -183.71047974 55.6547699 C-183.01008107 55.40531284 -182.30968241 55.15585578 -181.58805954 54.89883941 C-179.38665737 54.11986726 -177.1787751 53.3622729 -174.96875 52.6081543 C-173.61022492 52.1366697 -172.25181245 51.66486052 -170.89352036 51.19270515 C-166.63801159 49.72329727 -162.37012461 48.29179011 -158.10107422 46.86230469 C-156.48278553 46.31813634 -154.86456766 45.77375733 -153.24641418 45.22918701 C-148.0068446 43.46714243 -142.76524259 41.71119148 -137.5234375 39.95581055 C-135.7070562 39.3472081 -133.89068178 38.73858509 -132.07431412 38.12994194 C-124.52554587 35.60090214 -116.97626656 33.07339857 -109.4255352 30.55022526 C-98.64665046 26.94829482 -87.87098056 23.33707615 -77.09953105 19.71296889 C-69.49383605 17.15481055 -61.8847324 14.60697319 -54.27299321 12.06685632 C-49.73686746 10.55281423 -45.202348 9.03432294 -40.67141342 7.50480843 C-36.42179864 6.07052284 -32.16811173 4.64905756 -27.91094017 3.23736572 C-26.35090611 2.71759349 -24.79240347 2.19319853 -23.2355938 1.66384697 C-21.10989215 0.94184224 -18.97929116 0.23672776 -16.84664917 -0.46446228 C-15.65619429 -0.86318007 -14.4657394 -1.26189787 -13.23921013 -1.67269802 C-8.43224292 -2.72971116 -4.50387644 -1.77272594 0 0 Z M-20.66015625 61.5456543 C-22.55208265 62.19230342 -24.44400977 62.83895046 -26.3359375 63.4855957 C-29.44700287 64.55108094 -32.55782606 65.61726823 -35.66845703 66.684021 C-47.92690345 70.88556538 -60.19852904 75.03132305 -72.52734375 79.0222168 C-74.71745683 79.73548127 -76.90748092 80.44901906 -79.09741211 81.1628418 C-82.26363893 82.19481416 -85.43108341 83.22119118 -88.60501099 84.22924805 C-91.5541833 85.16629403 -94.49612596 86.12352054 -97.4375 87.0847168 C-98.3022142 87.35297272 -99.16692841 87.62122864 -100.05784607 87.89761353 C-105.68787066 89.76497177 -109.89228525 92.24775237 -113.96875 96.6081543 C-115.55818511 99.78702452 -115.10171985 103.21671419 -115.08900452 106.70718384 C-115.08985894 107.55418803 -115.09071337 108.40119221 -115.09159368 109.2738632 C-115.09324832 112.12831599 -115.08772735 114.98271077 -115.08227539 117.8371582 C-115.08199349 119.87683613 -115.08215131 121.91651415 -115.0827179 123.95619202 C-115.08300576 129.50755826 -115.07711086 135.05890306 -115.07014394 140.6102643 C-115.06390851 146.40654677 -115.06330645 152.20282969 -115.06211853 157.99911499 C-115.05900578 168.98154461 -115.05079313 179.96396431 -115.04076904 190.94638956 C-115.02960618 203.44680137 -115.02409702 215.94721366 -115.01907361 228.44762921 C-115.00861048 254.16780974 -114.99101211 279.88798147 -114.96875 305.6081543 C-107.05310073 303.54076614 -99.28584331 301.14935439 -91.52416992 298.56738281 C-90.33251221 298.17347351 -89.14085449 297.77956421 -87.91308594 297.37371826 C-84.67916044 296.30374607 -81.44615226 295.23109843 -78.21372771 294.15660596 C-76.18944252 293.4838113 -74.16492781 292.81171171 -72.14034462 292.13981438 C-65.79095976 290.03243592 -59.44236529 287.92270142 -53.09492415 285.80947548 C-45.79295139 283.37847925 -38.48841965 280.95538333 -31.18158835 278.53903061 C-25.5112537 276.66334165 -19.84325059 274.78072091 -14.17696077 272.89284843 C-10.80139669 271.76835723 -7.4249351 270.64677004 -4.04601097 269.53241158 C-0.28276719 268.29105224 3.47559645 267.03533232 7.23364258 265.77832031 C8.90057411 265.23189125 8.90057411 265.23189125 10.60118103 264.67442322 C20.20909098 261.61210629 20.20909098 261.61210629 26.88198853 254.44117737 C28.45145914 250.10519332 28.45227508 245.84622268 28.41943359 241.27978516 C28.42469055 240.37156509 28.42994751 239.46334503 28.43536377 238.52760315 C28.44850626 235.5425569 28.43984677 232.55804918 28.4296875 229.57299805 C28.43170971 227.48987221 28.43462237 225.40674707 28.43838501 223.32362366 C28.44280043 218.96519202 28.43640177 214.60694525 28.42236328 210.24853516 C28.40526134 204.66770454 28.41512409 199.08730647 28.43308067 193.50649166 C28.4439305 189.20761364 28.44046682 184.90883787 28.4326973 180.60995674 C28.43069917 178.55230215 28.43314094 176.49463822 28.44013596 174.43699455 C28.44777124 171.56012304 28.43611739 168.68394863 28.41943359 165.80712891 C28.42854263 164.53752823 28.42854263 164.53752823 28.43783569 163.24227905 C28.37076466 156.98618837 27.06076368 152.82750344 22.734375 148.09643555 C18.02971719 144.46326501 12.23632519 142.61561925 6.72558594 140.53125 C4.7680466 139.79065909 2.81734923 139.03395098 0.8671875 138.27416992 C-4.89102201 135.71444571 -4.89102201 135.71444571 -10.96875 134.6081543 C-10.96875 109.5281543 -10.96875 84.4481543 -10.96875 58.6081543 C-14.06655815 58.6081543 -17.70410924 60.52976372 -20.66015625 61.5456543 Z " fill="#23B1CF" transform="translate(195.96875,3.391845703125)"/>
<path d="M0 0 C4.3944904 0.48023596 8.16749741 1.69226766 12.25805664 3.32910156 C13.47695084 3.81340637 14.69584503 4.29771118 15.95167542 4.79669189 C17.27120874 5.32790428 18.59070131 5.85921793 19.91015625 6.390625 C21.2826958 6.93826898 22.65545683 7.48535818 24.02842712 8.03192139 C27.64060343 9.47148222 31.24993164 10.91804981 34.85864258 12.36627197 C39.20386451 14.1086689 43.55224224 15.84316979 47.90028286 17.57851791 C51.2929579 18.93269424 54.68513896 20.2880574 58.07569885 21.64752197 C66.02551531 24.83237544 73.99811827 27.94830882 82 31 C82 34 82 34 81 36 C80.89437112 38.58856223 80.84951482 41.15080061 80.84851074 43.73997498 C80.84427833 44.54943433 80.84004592 45.35889369 80.83568525 46.19288212 C80.82260397 48.92343036 80.81662048 51.65394932 80.81054688 54.38452148 C80.80260535 56.33832478 80.79421747 58.2921263 80.78541565 60.2459259 C80.76730047 64.4735659 80.75230191 68.70120181 80.73963928 72.92886162 C80.71932027 79.67884087 80.69165553 86.42877807 80.66296387 93.1787262 C80.60783723 106.38139876 80.5599602 119.58409274 80.51302338 132.78679657 C80.44165015 152.79408674 80.36536779 172.801353 80.28125 192.80859375 C80.27656204 193.94261611 80.27187408 195.07663848 80.26704407 196.24502516 C80.1190722 231.83674445 79.80454399 267.41634866 79 303 C74.715435 302.48017632 70.91992565 301.79236335 66.91699219 300.17749023 C65.50821808 299.61571327 65.50821808 299.61571327 64.07098389 299.04258728 C63.07302795 298.63536942 62.07507202 298.22815155 61.046875 297.80859375 C59.99203918 297.38506119 58.93720337 296.96152863 57.85040283 296.52516174 C54.48062779 295.16985726 51.11537515 293.8036878 47.75 292.4375 C45.53412741 291.54554485 43.31798385 290.65426254 41.1015625 289.76367188 C35.73299459 287.60335338 30.37439971 285.41947134 25.01879883 283.22723389 C22.11722181 282.04765424 19.20749707 280.89087323 16.29492188 279.73876953 C14.5766269 279.04638471 12.85851602 278.35354273 11.140625 277.66015625 C10.36708679 277.36072617 9.59354858 277.06129608 8.79656982 276.75279236 C8.0854303 276.46191238 7.37429077 276.17103241 6.64160156 275.87133789 C6.03044495 275.62879776 5.41928833 275.38625763 4.78961182 275.1363678 C2.01066793 273.37179387 0.75642609 271.83977522 -1 269 C-1.59448853 265.41288869 -1.52648655 261.8599916 -1.48774719 258.23114014 C-1.49187046 257.13318155 -1.49599372 256.03522295 -1.50024194 254.90399289 C-1.50918555 251.2179695 -1.48949531 247.53265416 -1.4699707 243.84667969 C-1.47047936 241.2071867 -1.47256572 238.56773861 -1.47660828 235.92825317 C-1.48283328 229.50022934 -1.4678474 223.07242071 -1.44588266 216.64443824 C-1.42120168 209.16360548 -1.41827837 201.6828122 -1.41647889 194.20194474 C-1.4126026 180.85984321 -1.39013372 167.51783875 -1.35668945 154.17578125 C-1.32423505 141.21809483 -1.30300508 128.26045967 -1.29516602 115.30273438 C-1.29468052 114.50409858 -1.29419503 113.70546279 -1.29369483 112.88262591 C-1.29176628 109.67283035 -1.28985415 106.46303479 -1.28797873 103.2532392 C-1.28045468 90.91717513 -1.26482614 78.58111952 -1.24748212 66.24506579 C-1.24224077 62.51462188 -1.23730789 58.78417813 -1.2331202 55.05373287 C-1.22346087 46.54820992 -1.20891627 38.04272658 -1.1862812 29.53722763 C-1.18013807 26.95433016 -1.17569943 24.37142803 -1.17303848 21.78852463 C-1.16908237 18.27929427 -1.15898934 14.77013666 -1.14717102 11.26092529 C-1.14735538 10.22447459 -1.14753975 9.18802389 -1.14772969 8.12016559 C-1.14104293 6.72147923 -1.14104293 6.72147923 -1.13422108 5.29453659 C-1.13243251 4.48350629 -1.13064394 3.67247598 -1.12880117 2.836869 C-1 1 -1 1 0 0 Z " fill="#0074D5" transform="translate(1,66)"/>
<path d="M0 0 C0.72460419 0.28194214 1.44920837 0.56388428 2.19577026 0.85437012 C2.96647858 1.16112671 3.73718689 1.4678833 4.53125 1.78393555 C5.35231232 2.10543579 6.17337463 2.42693604 7.01931763 2.75817871 C9.69225883 3.80659777 12.36178082 4.86342964 15.03125 5.9206543 C16.87597886 6.64656676 18.72086946 7.37206833 20.56591797 8.09716797 C26.05803171 10.25826704 31.54534197 12.4313575 37.03125 14.6081543 C37.83373169 14.9263916 38.63621338 15.24462891 39.4630127 15.57250977 C65.86782396 26.04700758 65.86782396 26.04700758 74.03125 29.6081543 C71.41886678 32.22053752 68.53712832 32.94591765 65.10424805 34.06323242 C64.38975998 34.30105438 63.67527191 34.53887634 62.93913269 34.78390503 C60.55889585 35.57467642 58.175951 36.35694906 55.79296875 37.1394043 C54.1163312 37.69494285 52.43988683 38.25106474 50.7636261 38.80773926 C46.31960328 40.28207831 41.87332939 41.74950471 37.42645264 43.21520996 C30.42807077 45.52313158 23.43298103 47.84102725 16.43787193 50.1588459 C14.70902614 50.73161802 12.98009396 51.30412945 11.25107765 51.87638664 C-0.56348336 55.78760153 -12.343752 59.78257224 -24.09918213 63.86854553 C-33.84072622 67.24399645 -43.62029968 70.49710985 -53.41015625 73.72924805 C-54.99253991 74.25238563 -56.57490181 74.77558903 -58.15724182 75.29885864 C-64.60274301 77.4296075 -71.04851572 79.55946369 -77.49829102 81.67724609 C-81.52147059 82.99853841 -85.54218194 84.32710836 -89.56135368 85.66053963 C-91.07269732 86.16042569 -92.58494095 86.65759975 -94.09811592 87.1519146 C-96.18959063 87.83542583 -98.27778767 88.52817666 -100.36547852 89.22314453 C-101.54819839 89.61267807 -102.73091827 90.00221161 -103.94947815 90.40354919 C-106.96941014 91.43932213 -106.96941014 91.43932213 -109.10960388 93.31729126 C-110.96875 94.6081543 -110.96875 94.6081543 -113.04040527 94.44248962 C-113.79213013 94.17996902 -114.54385498 93.91744843 -115.31835938 93.64697266 C-116.20096436 93.3437912 -117.08356934 93.04060974 -117.99291992 92.72824097 C-118.97494385 92.35861237 -119.95696777 91.98898376 -120.96875 91.6081543 C-122.04294189 91.20460724 -123.11713379 90.80106018 -124.22387695 90.38528442 C-127.95358266 88.94949063 -131.66529121 87.47348842 -135.375 85.98706055 C-136.74908144 85.44005909 -138.12331129 84.89343032 -139.49768066 84.34715271 C-143.09225198 82.91724609 -146.68479455 81.48231128 -150.2769165 80.04626465 C-153.91124226 78.59439649 -157.54750547 77.14739816 -161.18359375 75.69995117 C-172.11615449 71.34646676 -183.04359141 66.98018126 -193.96875 62.6081543 C-193.96875 61.9481543 -193.96875 61.2881543 -193.96875 60.6081543 C-185.37063673 55.81488017 -176.25388882 52.79119736 -166.95605469 49.70043945 C-165.24984985 49.12725613 -163.54385153 48.55345776 -161.83804321 47.97909546 C-157.23333532 46.43097058 -152.62548813 44.89240912 -148.01673794 43.35636568 C-144.16361335 42.07139523 -140.311914 40.78218061 -136.46015286 39.49313009 C-127.37684377 36.45355053 -118.29080198 33.42224478 -109.203125 30.39575195 C-99.83177751 27.27458952 -90.46573829 24.13786857 -81.10205531 20.99379504 C-73.05069006 18.29107093 -64.99589323 15.59876048 -56.93831182 12.91462553 C-52.13062839 11.31292367 -47.32441277 9.70712174 -42.5215683 8.09096146 C-38.01107792 6.57360975 -33.49645559 5.06927075 -28.97831345 3.57486343 C-27.32153984 3.0244421 -25.66629116 2.46940603 -24.01272202 1.90943146 C-21.75532668 1.14577829 -19.4930181 0.39898311 -17.22869873 -0.34384155 C-16.57597197 -0.5690188 -15.92324522 -0.79419604 -15.25073886 -1.02619684 C-9.67638508 -2.82053547 -5.3393698 -2.10157616 0 0 Z " fill="#7BCCF0" transform="translate(195.96875,3.391845703125)"/>
<path d="M0 0 C0.75337646 0.26699707 1.50675293 0.53399414 2.28295898 0.80908203 C3.15839355 1.11297852 4.03382813 1.416875 4.93579102 1.72998047 C5.87406738 2.08866211 6.81234375 2.44734375 7.77905273 2.81689453 C8.74439941 3.18331055 9.70974609 3.54972656 10.7043457 3.92724609 C14.05504316 5.23419215 17.38622575 6.58389712 20.71655273 7.94189453 C23.34193767 9.00406596 25.96873123 10.06273646 28.59545898 11.12158203 C29.30025391 11.40614258 30.00504883 11.69070313 30.73120117 11.98388672 C40.85101451 16.06463547 51.00481466 20.06005521 61.15405273 24.06689453 C63.10580951 24.83785205 65.05755137 25.60884733 67.00927734 26.37988281 C71.5989444 28.19287424 76.18890753 30.00511405 80.77905273 31.81689453 C77.2741855 36.09346908 73.34033793 37.39945959 68.27767944 39.14430237 C67.43713622 39.443518 66.59659301 39.74273362 65.73057878 40.05101639 C63.08480665 40.98724476 60.43323685 41.90481143 57.77905273 42.81689453 C56.97036381 43.09620339 56.16167489 43.37551225 55.32848024 43.66328502 C49.49795987 45.67102947 43.65090664 47.62790586 37.80102539 49.57836914 C35.8851012 50.21955933 33.96925581 50.860985 32.05348206 51.50262451 C26.9169782 53.22201703 21.77921531 54.93761464 16.64105272 56.6520431 C13.42569673 57.72505107 10.21060046 58.79883368 6.9955864 59.87286568 C-4.23275096 63.62376938 -15.46220639 67.37130518 -26.69262695 71.1159668 C-37.1486726 74.60253323 -47.60205184 78.09701183 -58.05428541 81.59498781 C-67.05502667 84.60678224 -76.05767336 87.61283132 -85.0618149 90.61444479 C-90.42901891 92.40377716 -95.79539931 94.19549082 -101.159832 95.99311638 C-106.18927364 97.67829164 -111.2210388 99.3563317 -116.25470161 101.02885437 C-118.10148529 101.64384209 -119.94741465 102.26140207 -121.79242134 102.88170052 C-124.30755655 103.72686003 -126.82558812 104.56274742 -129.34457397 105.39634705 C-130.07578441 105.64448385 -130.80699485 105.89262065 -131.56036317 106.14827675 C-135.41757268 107.41277983 -138.06563338 107.81689453 -142.22094727 107.81689453 C-142.22094727 88.34689453 -142.22094727 68.87689453 -142.22094727 48.81689453 C-132.09645178 44.31711876 -132.09645178 44.31711876 -127.38885498 42.76158142 C-126.32352539 42.40702377 -125.2581958 42.05246613 -124.1605835 41.68716431 C-123.02260315 41.31352753 -121.8846228 40.93989075 -120.7121582 40.55493164 C-118.83613631 39.93265423 -116.96011469 39.31037603 -115.08410311 38.68806756 C-113.08580059 38.02615168 -111.08677 37.36647975 -109.08751678 36.70744133 C-104.90825379 35.32956985 -100.73144896 33.94435037 -96.55499268 32.55799866 C-86.18847057 29.11812037 -75.81890126 25.68746107 -65.44848633 22.25933838 C-57.37197438 19.58941231 -49.29637525 16.91679534 -41.22350907 14.23586279 C-37.0744156 12.85832147 -32.923513 11.48642291 -28.77114058 10.11879909 C-25.5832202 9.06714433 -22.39790655 8.00767847 -19.2121582 6.94946289 C-18.06608093 6.57380188 -16.92000366 6.19814087 -15.73919678 5.81109619 C-14.15812134 5.28348946 -14.15812134 5.28348946 -12.54510498 4.745224 C-11.63223598 4.44346221 -10.71936699 4.14170042 -9.7788353 3.83079433 C-7.12516278 2.86106253 -7.12516278 2.86106253 -4.52699661 1.18492985 C-2.22094727 -0.18310547 -2.22094727 -0.18310547 0 0 Z " fill="#7BCCF0" transform="translate(222.220947265625,261.18310546875)"/>
<path d="M0 0 C0 19.47 0 38.94 0 59 C-7.87536439 57.87494794 -7.87536439 57.87494794 -12.08300781 56.17749023 C-13.02219055 55.80297226 -13.96137329 55.42845428 -14.92901611 55.04258728 C-15.92697205 54.63536942 -16.92492798 54.22815155 -17.953125 53.80859375 C-19.00796082 53.38506119 -20.06279663 52.96152863 -21.14959717 52.52516174 C-24.51937221 51.16985726 -27.88462485 49.8036878 -31.25 48.4375 C-33.46587259 47.54554485 -35.68201615 46.65426254 -37.8984375 45.76367188 C-43.26394465 43.60450736 -48.61978335 41.42249676 -53.97241211 39.23162842 C-56.90086461 38.04032846 -59.83697082 36.87007037 -62.77539062 35.70361328 C-64.51193241 35.00215632 -66.24827339 34.30020194 -67.984375 33.59765625 C-68.77467102 33.28984726 -69.56496704 32.98203827 -70.37921143 32.66490173 C-75.66317511 30.49926565 -75.66317511 30.49926565 -77.50097656 27.77514648 C-77.6656543 27.18934814 -77.83033203 26.6035498 -78 26 C-76.94127686 25.63874023 -75.88255371 25.27748047 -74.79174805 24.90527344 C-70.68497336 23.50388054 -66.57833673 22.10208334 -62.47171021 20.70025635 C-59.68819005 19.75023551 -56.90452341 18.80064476 -54.12084961 17.85107422 C-44.9273565 14.71392561 -35.73685314 11.56860128 -26.5546875 8.3984375 C-24.93531884 7.84012255 -23.31593447 7.28185319 -21.6965332 6.72363281 C-19.38765787 5.92772037 -17.07916588 5.1307808 -14.77182007 4.33044434 C-12.65217322 3.59524092 -10.53130637 2.86366518 -8.41015625 2.1328125 C-7.21527588 1.71918457 -6.02039551 1.30555664 -4.78930664 0.87939453 C-2 0 -2 0 0 0 Z " fill="#084D92" transform="translate(80,310)"/>
</svg>
