<?xml version="1.0" encoding="UTF-8"?>
<svg id="_레이어_1" data-name="레이어 1" xmlns="http://www.w3.org/2000/svg" viewBox="0 0 10.46 11.32">
  <defs>
    <style>
      .cls-1 {
        fill: #279acd;
      }

      .cls-2 {
        fill: none;
      }

      .cls-3 {
        fill: #306fa7;
      }

      .cls-4 {
        fill: #86b64e;
      }
    </style>
  </defs>
  <path class="cls-2" d="M6.73,5.02v1.28c0,.13-.07.26-.19.32l-1.13.64c-.06.03-.12.05-.18.05v1.75c.09,0,.17,0,.25-.05l2.6-1.48c.14-.08.23-.23.23-.39v-2.79s-.02-.05-.02-.08h.02v-.41l-1.65.96c.04.06.06.13.06.2Z"/>
  <path class="cls-2" d="M2.21,7.14c0,.16.09.31.23.39l2.6,1.48c.06.03.12.05.19.05v-1.75c-.06,0-.13-.02-.18-.05l-1.13-.64c-.12-.07-.19-.19-.19-.32v-1.28c0-.06.02-.13.05-.18l-1.51-.86c-.03.06-.05.13-.05.2v2.96Z"/>
  <path class="cls-1" d="M5.23,7.31c.06,0,.13-.02.18-.05l1.13-.64c.12-.07.19-.19.19-.32v-1.28c0-.07-.02-.14-.06-.2l-1.44.84v1.65Z"/>
  <path class="cls-4" d="M6.66,4.82s-.07-.09-.12-.12l-1.13-.64c-.11-.06-.25-.06-.37,0l-1.13.64c-.06.03-.11.08-.14.14l1.45.82,1.44-.84Z"/>
  <path class="cls-3" d="M3.73,6.3c0,.13.07.26.19.32l1.13.64c.06.03.12.05.18.05v-1.65l-1.45-.82c-.03.05-.05.12-.05.18v1.28Z"/>
  <path class="cls-4" d="M10.05,2.4l-1.74-1v2.46l2.02-1.18c-.07-.11-.16-.21-.28-.28Z"/>
  <path class="cls-4" d="M2.44,3.79l2.6-1.48c.14-.08.31-.08.44,0l1.34.76V.54l-.37-.21c-.76-.44-1.69-.44-2.45,0L.41,2.4c-.14.08-.25.21-.32.35l2.18,1.23c.04-.08.09-.15.17-.19Z"/>
  <path class="cls-3" d="M5.04,9.01l-2.6-1.48c-.14-.08-.23-.23-.23-.39v-2.96c0-.07.02-.14.05-.2L.09,2.76c-.05.11-.09.23-.09.36v4.78c0,.49.26.94.68,1.19l3.32,1.92c.38.22.8.33,1.22.33v-2.26c-.07,0-.13-.02-.19-.05Z"/>
  <path class="cls-1" d="M8.31,3.86v.41h-.02s.02.05.02.08v2.79c0,.16-.09.31-.23.39l-2.6,1.48c-.08.04-.17.06-.25.05v2.26c.42,0,.84-.11,1.22-.33l2.85-1.65c.89-.45,1.05-.84,1.15-1.92V3.11c0-.16-.05-.3-.13-.43l-2.02,1.18Z"/>
</svg>