<?xml version="1.0" encoding="UTF-8"?>
<svg version="1.1" xmlns="http://www.w3.org/2000/svg" width="240" height="240">
<path d="M0 0 C4.70334923 3.49470254 8.96250506 7.2132738 13.1110096 11.34575844 C14.06390877 12.28376289 14.06390877 12.28376289 15.03605843 13.24071693 C17.11194952 15.28767203 19.18022444 17.34208961 21.24724007 19.39800453 C21.9605637 20.10567341 22.67388733 20.81334229 23.40882683 21.54245567 C27.18183423 25.28560709 30.94914637 29.03437823 34.71159554 32.78814125 C38.57575869 36.64133706 42.45812915 40.47561959 46.34514236 44.30574417 C49.35292325 47.27608564 52.34701795 50.25994605 55.33765984 53.2475338 C56.76228197 54.66614662 58.19185233 56.07980985 59.62663841 57.48814201 C69.88274703 67.56848688 78.84200775 76.75930858 79.33708382 91.98784828 C78.88254074 105.06050714 71.68924975 113.97719778 62.62224007 122.83941078 C61.39826012 124.05845856 61.39826012 124.05845856 60.1495533 125.30213356 C57.56378335 127.87228899 54.96417488 130.42793466 52.36442757 132.98394203 C50.62788206 134.70897972 48.89219724 136.43488427 47.15739632 138.16167641 C45.47978129 139.82586483 43.80142054 141.48930192 42.12224007 143.15191078 C41.35114906 143.91561485 40.58005806 144.67931892 39.78560066 145.46616554 C35.64224671 149.53773275 31.4113141 153.44886253 27.01432991 157.24466896 C24.69805303 159.26975845 22.50613097 161.40019364 20.32927132 163.57378578 C19.48429085 164.41747719 18.63931038 165.26116859 17.76872444 166.13042641 C16.48578499 167.41916664 16.48578499 167.41916664 15.17692757 168.73394203 C14.31776741 169.589235 13.45860725 170.44452797 12.57341194 171.32573891 C8.79239703 175.11253077 5.08242216 178.90857341 1.59880257 182.97222328 C-1.82799738 186.95939933 -5.5711542 190.5021841 -9.44807243 194.04644203 C-13.47172887 197.75030054 -17.4752445 201.4448492 -21.25666618 205.39800453 C-21.7888073 205.95197914 -22.32094841 206.50595375 -22.86921501 207.07671547 C-23.85029839 208.10850368 -24.82101187 209.15029571 -25.77888298 210.20366859 C-28.95683679 213.53467163 -31.16970058 214.61558297 -35.76057243 214.79644203 C-38.09406853 213.25762367 -38.09406853 213.25762367 -40.28400993 210.95659828 C-41.07678337 210.14126625 -41.86955681 209.32593422 -42.68635368 208.48589516 C-43.49459587 207.61900063 -44.30283806 206.75210609 -45.13557243 205.85894203 C-45.96701775 204.99591469 -46.79846306 204.13288734 -47.65510368 203.24370766 C-49.70682511 201.10944571 -51.74050576 198.96061819 -53.76057243 196.79644203 C-52.45483192 191.67853957 -50.44440888 189.03495353 -46.63557243 185.42144203 C-45.72549431 184.54745766 -44.81541618 183.67347328 -43.87775993 182.77300453 C-43.17908806 182.12073891 -42.48041618 181.46847328 -41.76057243 180.79644203 C-43.39153244 176.62748539 -46.44555227 173.87279462 -49.58381462 170.80962563 C-50.17919029 170.22038307 -50.77456596 169.63114052 -51.38798332 169.02404213 C-52.68011336 167.74620469 -53.97447161 166.47061735 -55.27078819 165.19702721 C-57.32796224 163.17471235 -59.37790153 161.14532046 -61.42591667 159.11373329 C-67.24973292 153.33873426 -73.08443077 147.57482775 -78.92854118 141.82036781 C-82.5056359 138.29714903 -86.07267409 134.76399764 -89.6339016 131.2247448 C-90.98715989 129.88382679 -92.34419151 128.5467049 -93.7051754 127.21362877 C-113.9615732 107.36867523 -113.9615732 107.36867523 -114.13557243 92.10894203 C-113.75864912 73.24293835 -99.97215121 62.84364696 -87.54572868 50.37847328 C-86.61699849 49.44550202 -86.61699849 49.44550202 -85.66950607 48.49368286 C-82.39923464 45.20854121 -79.12619317 41.92619094 -75.85066032 38.64629555 C-72.49427008 35.28440653 -69.14727756 31.91332094 -65.80235958 28.54002285 C-63.20185661 25.92079546 -60.59457162 23.30839793 -57.98545456 20.69775391 C-56.74914941 19.45844909 -55.51531255 18.21667628 -54.28414917 16.97226334 C-40.47756162 3.02761242 -20.22691405 -13.82747061 0 0 Z M-42.26057243 50.10894203 C-44.24578407 52.15099327 -46.23660958 54.18749365 -48.22932243 56.22222328 C-48.70718193 56.71167427 -49.18504143 57.20112526 -49.67738152 57.7054081 C-53.52935082 61.62538075 -57.57634247 65.24021927 -61.76057243 68.79644203 C-69.03267682 75.4506552 -74.21692843 81.38144274 -75.07307243 91.48394203 C-74.86216916 101.36377454 -68.51835942 107.76363789 -61.83088493 114.31987953 C-60.52895699 115.6218679 -60.52895699 115.6218679 -59.20072746 116.95015907 C-57.37263116 118.77291769 -55.5384502 120.58959206 -53.69856071 122.40044594 C-50.88736016 125.169681 -48.09820106 127.95975328 -45.31135368 130.75347328 C-43.52745886 132.52687849 -41.74234352 134.29905698 -39.95588493 136.06987953 C-38.70873207 137.31673027 -38.70873207 137.31673027 -37.4363842 138.58876991 C-31.2190164 144.68050701 -26.10643105 148.24305955 -17.27619743 148.85112953 C-5.30320808 148.59084715 3.00111721 137.15896282 10.73942757 129.29644203 C15.8520293 124.10177607 20.9916545 119.05405429 26.52018929 114.30230141 C32.70627107 108.8839895 38.33349568 102.87030356 39.58317757 94.49175453 C40.06903858 86.69368533 37.22023719 80.50615196 32.37428474 74.475214 C30.21486624 72.13266945 27.99193466 69.88143833 25.71989632 67.64800453 C24.90249474 66.82819099 24.08509315 66.00837746 23.24292183 65.16372108 C21.5234412 63.44521405 19.79780128 61.73284967 18.06633186 60.0264225 C15.42902904 57.4235161 12.81666094 54.7973561 10.20622444 52.16753578 C8.52471245 50.49292086 6.8418156 48.81969511 5.15739632 47.14800453 C4.38316826 46.3688166 3.6089402 45.58962868 2.81125069 44.78682899 C-2.37825146 39.70778065 -7.31790671 35.60854222 -14.66682243 34.26519203 C-15.52275993 34.27550453 -16.37869743 34.28581703 -17.26057243 34.29644203 C-18.11650993 34.28612953 -18.97244743 34.27581703 -19.85432243 34.26519203 C-29.71492112 36.06766706 -35.63812429 43.2261809 -42.26057243 50.10894203 Z " fill="#E24111" transform="translate(137.76057243347168,15.203557968139648)"/>
</svg>
