<?xml version="1.0" encoding="UTF-8"?>
<svg version="1.1" xmlns="http://www.w3.org/2000/svg" width="1400" height="1400">
<path d="M0 0 C2.7369324 2.02155437 5.34028534 4.17789758 7.9375 6.375 C8.68604248 7.00059814 9.43458496 7.62619629 10.20581055 8.27075195 C12.47678435 10.17322539 14.73932559 12.08530619 17 14 C17.97211426 14.81911865 17.97211426 14.81911865 18.96386719 15.65478516 C26.15683482 21.72015494 33.19393424 27.92663917 40.0859375 34.33203125 C42.26815549 36.32996006 44.47065518 38.27396546 46.71118164 40.20410156 C50.81101601 43.78725287 54.692175 47.54714491 58.53515625 51.40234375 C59.21750839 52.08373917 59.89986053 52.76513458 60.60289001 53.46717834 C62.03344437 54.89705741 63.46275767 56.32817911 64.89086914 57.76049805 C67.05699074 59.93197711 69.22840174 62.09806325 71.40039062 64.26367188 C72.79979987 65.66374202 74.19889884 67.06412238 75.59765625 68.46484375 C76.23639175 69.10155502 76.87512726 69.7382663 77.53321838 70.39427185 C81.34458322 74.22519352 84.9717648 78.17005995 88.50086975 82.26275635 C90.41774339 84.4840954 92.39538705 86.64706131 94.375 88.8125 C98.21928245 93.07745308 101.89526905 97.4486085 105.50390625 101.9140625 C107.31198156 104.14939817 109.13112763 106.37188205 110.96484375 108.5859375 C140.97250838 144.94501677 140.97250838 144.94501677 148 159 C151.0774399 159.39933824 154.09461786 159.66672867 157.1875 159.875 C159.30362075 160.04130299 161.41949137 160.21080722 163.53515625 160.3828125 C164.71867676 160.47852539 165.90219727 160.57423828 167.12158203 160.67285156 C205.964803 163.94931613 244.12001387 169.75240572 282 179 C282.67877197 179.1652417 283.35754395 179.3304834 284.05688477 179.50073242 C319.58908562 188.19977275 354.57662681 200.14125654 388 215 C389.08265137 215.48001465 390.16530273 215.9600293 391.28076172 216.45458984 C416.48273358 227.70593941 441.22497799 239.96958691 465 254 C465.99902344 254.58797363 466.99804688 255.17594727 468.02734375 255.78173828 C471.00751552 257.54658841 473.97486565 259.33089173 476.9375 261.125 C478.30733032 261.94206421 478.30733032 261.94206421 479.70483398 262.77563477 C480.53313721 263.28537842 481.36144043 263.79512207 482.21484375 264.3203125 C482.94823975 264.76648926 483.68163574 265.21266602 484.43725586 265.67236328 C484.95296143 266.1104834 485.46866699 266.54860352 486 267 C486 267.99 486 268.98 486 270 C423.59138799 304.26494586 358.65117121 324.13645578 287.0625 324.1875 C286.24832611 324.18858765 285.43415222 324.18967529 284.5953064 324.1907959 C274.39690013 324.18925059 264.26212354 323.84888092 254.08325195 323.23364258 C228.38223642 321.70503635 200.94820665 322.20902973 180.5625 340.14453125 C158.51636513 362.60030714 160.64705819 399.69649002 159.39819336 428.68945312 C155.64660904 514.5725557 155.64660904 514.5725557 136 542 C135.01 542.33 134.02 542.66 133 543 C132.77562256 542.35490479 132.55124512 541.70980957 132.32006836 541.04516602 C120.61856124 507.7242866 105.73771453 475.81959 87.10351562 445.78173828 C85.91900973 443.86923296 84.74853493 441.94850394 83.578125 440.02734375 C73.99980735 424.25879489 73.99980735 424.25879489 62.3125 410.0625 C60 407 60 407 60.13354492 403.95288086 C61.04389164 399.02638852 62.82962224 394.38138779 64.55078125 389.69140625 C64.91622543 388.67853546 65.28166962 387.66566467 65.65818787 386.62210083 C66.87023334 383.26667415 68.09148948 379.91467362 69.3125 376.5625 C70.17491472 374.17906757 71.03655389 371.79535438 71.89746094 369.41137695 C73.24181327 365.68920898 74.58644128 361.96714594 75.93417358 358.24620056 C80.17096055 346.54731625 84.35467933 334.82972539 88.53063965 323.10900879 C95.93138473 302.34261738 103.37261527 281.59086685 110.83162308 260.84535217 C111.79982684 258.15240202 112.76784114 255.45938378 113.73585415 252.76636505 C118.00038142 240.90252492 122.26574821 229.03898871 126.53551579 217.17703342 C128.54438419 211.59568214 130.55088955 206.01348308 132.55661011 200.43099976 C133.38546485 198.12538056 134.21513939 195.82005588 135.04568481 193.51504517 C136.18488507 190.35322307 137.32128554 187.19040807 138.45703125 184.02734375 C138.78922668 183.10752716 139.12142212 182.18771057 139.46368408 181.24002075 C141.15164997 176.52930108 142.69115681 171.83028395 144 167 C143.00033203 168.28970703 143.00033203 168.28970703 141.98046875 169.60546875 C137.26177387 175.66643167 132.49762798 181.6659716 127.5 187.5 C123.7180673 191.91573106 120.0672837 196.4091491 116.5 201 C112.49918743 206.14877299 108.36609011 211.1535141 104.125 216.10546875 C100.81208736 219.9924941 97.6335169 223.9673774 94.5 228 C90.49918743 233.14877299 86.36609011 238.1535141 82.125 243.10546875 C78.81208736 246.9924941 75.6335169 250.9673774 72.5 255 C68.49855894 260.14958182 64.36512877 265.15540278 60.12280273 270.10766602 C56.82887444 273.97170852 53.67397108 277.92557453 50.5625 281.9375 C46.35995526 287.35277908 41.97594576 292.57196335 37.48291016 297.74755859 C33.52823345 302.32618688 29.78134132 307.04035503 26.07421875 311.8203125 C22.97694697 315.7987047 19.77993297 319.67118266 16.5 323.5 C12.71806167 327.91573023 9.06737067 332.40921372 5.5 337 C0.97993049 342.81499082 -3.70477526 348.46625555 -8.4921875 354.0625 C-10.87124345 356.72239187 -10.87124345 356.72239187 -12.12744141 358.72680664 C-13.28125 360.41015625 -13.28125 360.41015625 -16 363 C-19.19817644 363.15244857 -21.52451977 362.96896768 -24.625 362.4375 C-34.20755539 361.18681987 -43.72399554 360.58091525 -53.375 360.3125 C-54.10089325 360.2913916 -54.8267865 360.2702832 -55.57467651 360.24853516 C-74.05832164 359.74125139 -92.52713947 360.34243833 -111 361 C-108.17847671 358.11939306 -105.39002081 355.78172856 -102.0625 353.5 C-75.9506049 334.61054397 -58.88183542 307.02787803 -53.0625 275.3125 C-46.96304743 236.61252505 -58.76343612 201.42443486 -74.76953125 166.80859375 C-88.8192307 136.41510086 -88.8192307 136.41510086 -92 123 C-92.16918945 122.29069336 -92.33837891 121.58138672 -92.51269531 120.85058594 C-98.10226991 96.34245118 -95.05235917 72.14762816 -82.3125 50.375 C-66.24740227 25.54712169 -41.57250972 8.12079397 -13.25 -0.125 C-12.49944336 -0.34961914 -11.74888672 -0.57423828 -10.97558594 -0.80566406 C-6.55415578 -1.99396112 -3.94290546 -2.40920838 0 0 Z " fill="#EA002C" transform="translate(784,284)"/>
<path d="M0 0 C34.65 0 69.3 0 105 0 C105.33 61.38 105.66 122.76 106 186 C114.95452243 174.24718931 123.8402071 162.52066991 132.5703125 150.61328125 C136.53121633 145.25035756 140.64106334 140.00807088 144.75488281 134.76220703 C149.49358851 128.69956768 154.06674123 122.52671863 158.609375 116.31640625 C163.66171513 109.42276883 168.83843857 102.62915404 174.03417969 95.84326172 C178.46382366 90.04661549 182.81798257 84.20069726 187.125 78.3125 C192.21162593 71.36154511 197.43997185 64.53967974 202.75488281 57.76220703 C207.48907125 51.705347 212.05844242 45.53879292 216.59619141 39.33398438 C221.74523131 32.30746554 227.01415557 25.37635441 232.31982422 18.4675293 C232.9438916 17.65324463 233.56795898 16.83895996 234.2109375 16 C234.8040699 15.24238027 235.3972023 14.48476053 236.00830841 13.70418262 C238.04321903 11.03890496 238.04321903 11.03890496 239.67501068 8.14937115 C244.30446318 0.60955071 244.30446318 0.60955071 248.76805115 -0.99512291 C252.11183321 -1.35396685 255.29694518 -1.36257732 258.65820312 -1.2487793 C260.53264099 -1.25118874 260.53264099 -1.25118874 262.44494629 -1.25364685 C265.85224482 -1.24731961 269.25209511 -1.19243061 272.65807533 -1.11533332 C276.22393166 -1.0462817 279.7899015 -1.04008544 283.35632324 -1.02705383 C290.10020483 -0.9929457 296.84211066 -0.90279826 303.58512449 -0.79220945 C311.26565757 -0.66899596 318.94628812 -0.60871325 326.62756443 -0.55355966 C342.41951818 -0.43876726 358.20950374 -0.24545519 374 0 C371.66710891 3.99726098 369.03509745 7.45719784 366 10.9375 C362.04501551 15.53668758 358.21807214 20.20738695 354.5 25 C350.42652139 30.24232025 346.21977586 35.34434844 341.90966797 40.39331055 C338.60133299 44.27312818 335.39087795 48.21650604 332.22265625 52.2109375 C329.35853172 55.80493559 326.46170086 59.37177328 323.5625 62.9375 C322.71389404 63.98127808 322.71389404 63.98127808 321.84814453 65.04614258 C318.03281692 69.73611501 314.20654227 74.41701458 310.375 79.09375 C307.40911806 82.7230529 304.45434694 86.36130563 301.5 90 C295.6537528 97.19998197 289.78525321 104.38142613 283.90625 111.5546875 C278.85464425 117.72277133 273.82322374 123.90698189 268.79785156 130.09643555 C265.00124018 134.7712765 261.19162131 139.43522694 257.375 144.09375 C254.40911806 147.7230529 251.45434694 151.36130563 248.5 155 C242.6537528 162.19998197 236.78525321 169.38142613 230.90625 176.5546875 C225.86189448 182.71391869 220.83696933 188.88867147 215.81982422 195.07006836 C211.83140635 199.98237365 207.82558726 204.87985247 203.8046875 209.765625 C203.20914063 210.50296875 202.61359375 211.2403125 202 212 C201.10667969 213.01320313 201.10667969 213.01320313 200.1953125 214.046875 C198.78026371 215.89567918 198.78026371 215.89567918 199.26342773 217.9074707 C200.07048025 220.20022744 201.0309027 221.57685667 202.58984375 223.43359375 C203.12174316 224.07570801 203.65364258 224.71782227 204.20166016 225.37939453 C204.7744873 226.05856934 205.34731445 226.73774414 205.9375 227.4375 C207.13286705 228.88038759 208.32686295 230.32441213 209.51953125 231.76953125 C210.1120166 232.4857666 210.70450195 233.20200195 211.31494141 233.93994141 C214.4868504 237.81774032 217.50356791 241.81081352 220.54296875 245.79296875 C223.1440258 249.19854123 225.78691993 252.57039565 228.4375 255.9375 C228.89527832 256.51902832 229.35305664 257.10055664 229.82470703 257.69970703 C230.75259621 258.8779014 231.68065654 260.05596099 232.60888672 261.23388672 C234.90874245 264.15371058 237.20410522 267.07706142 239.5 270 C239.95439453 270.57814453 240.40878906 271.15628906 240.87695312 271.75195312 C243.15832249 274.65463159 245.43814165 277.55850275 247.71484375 280.46484375 C251.91000342 285.81695098 256.1182858 291.15642325 260.38085938 296.45507812 C265.15236418 302.38671351 269.83539728 308.37334995 274.4375 314.4375 C279.20998428 320.72461783 284.11828174 326.87841971 289.12475586 332.98022461 C293.58705382 338.43995374 297.86682442 344.02496781 302.125 349.64453125 C305.82427778 354.50872583 309.62380416 359.27588632 313.5 364 C318.51581981 370.11303039 323.3496556 376.34245414 328.125 382.64453125 C331.82427778 387.50872583 335.62380416 392.27588632 339.5 397 C344.51515855 403.11222449 349.34907098 409.34031862 354.12280273 415.64233398 C357.84005662 420.53139778 361.66412152 425.31697725 365.5625 430.0625 C370.10337655 435.59710361 374.51192004 441.21388208 378.8125 446.9375 C379.33465088 447.63045166 379.85680176 448.32340332 380.39477539 449.03735352 C384 453.87228613 384 453.87228613 384 455 C366.77123902 455.44525289 349.54428957 455.77955175 332.31107903 455.98443127 C324.30779814 456.08212314 316.30810498 456.21509702 308.30712891 456.43334961 C301.327279 456.62365572 294.35002706 456.74551076 287.36765492 456.7876814 C283.6739857 456.81231625 279.98774229 456.86946962 276.29647446 457.00887108 C253.98890375 457.81862989 253.98890375 457.81862989 247.44913483 453.19751358 C243.11934925 448.85292283 240.16939777 443.94217035 237.38211441 438.51673317 C235.01472869 434.20589021 231.98498297 430.3956464 229 426.5 C227.83040538 424.91882829 226.66339094 423.33574181 225.5 421.75 C224.9225 420.96625 224.345 420.1825 223.75 419.375 C217.33333333 410.66666667 210.91666667 401.95833333 204.5 393.25 C203.92241943 392.46616943 203.34483887 391.68233887 202.74975586 390.87475586 C201.58379194 389.29231815 200.41793896 387.70979869 199.25219727 386.12719727 C196.32568557 382.15448113 193.39722466 378.18323006 190.46484375 374.21484375 C184.72576358 366.44399909 179.01586072 358.65500166 173.375 350.8125 C168.84888759 344.52222468 164.25017127 338.2935626 159.5871582 332.10424805 C151.05194913 320.77001504 142.66097839 309.32999752 134.375 297.8125 C130.22184756 292.04098299 126.02166902 286.30941679 121.75 280.625 C121.25967285 279.97233154 120.7693457 279.31966309 120.26416016 278.6472168 C117.93830962 275.55742645 115.60173614 272.47638393 113.25 269.40625 C112.8262207 268.8498584 112.40244141 268.2934668 111.96582031 267.72021484 C110.82993171 266.22987426 109.68860589 264.74368213 108.546875 263.2578125 C107 261 107 261 107 259 C106.34 259 105.68 259 105 259 C105.00368717 259.60516575 105.00737434 260.2103315 105.01117325 260.8338356 C105.10004621 275.65352503 105.16596075 290.47318827 105.20724869 305.29307938 C105.22775305 312.46029566 105.25563704 319.62733257 105.30175781 326.79443359 C105.34200195 333.05137131 105.36752054 339.30817895 105.37635398 345.56524253 C105.38150629 348.86924288 105.39555114 352.17279112 105.42292023 355.4766922 C105.66115964 385.45960617 101.79262209 412.69584239 80.01953125 435.140625 C67.53664301 447.36575449 51.65584395 453.80882358 35 458 C34.02804687 458.24878906 33.05609375 458.49757813 32.0546875 458.75390625 C21.41654277 460.97147869 10.97877542 460 0 460 C0 308.2 0 156.4 0 0 Z " fill="#EA002C" transform="translate(401,775)"/>
<path d="M0 0 C-4.11393778 20.38269172 -12.00172763 40.2471539 -27 55 C-27.58523438 55.58394531 -28.17046875 56.16789063 -28.7734375 56.76953125 C-39.47372098 66.69115561 -53.97050327 69.80031725 -68.21875 69.37109375 C-74.08263294 69.02727072 -79.83659395 67.95751203 -85.625 67 C-95.74231952 65.35296116 -105.64354212 64.58801168 -115.875 64.5625 C-117.0913916 64.55283203 -118.3077832 64.54316406 -119.56103516 64.53320312 C-134.0088527 64.66809968 -148.42008042 67.70106963 -159.4375 77.625 C-166.75706129 85.70860735 -168.80946335 94.73119444 -168.42578125 105.44140625 C-167.09204368 116.58851569 -160.48408428 126.08457787 -152.25 133.46484375 C-134.37909088 147.46268673 -112.36100323 156.39201952 -92.01123047 166.20700073 C-45.65757598 188.56579855 -1.05392505 213.9052047 18.27734375 264.33203125 C19.34460712 267.53382136 20.21282104 270.71818626 21 274 C21.29777344 275.22589844 21.59554688 276.45179688 21.90234375 277.71484375 C26.12543588 297.34689893 26.0118878 320.55872557 21 340 C20.83371094 340.68094727 20.66742188 341.36189453 20.49609375 342.06347656 C11.75020689 377.41953399 -11.63966902 404.97873274 -42.14331055 423.91845703 C-60.35568741 434.88936153 -80.72820847 442.19813741 -101.5625 446.25 C-102.33964355 446.40114258 -103.11678711 446.55228516 -103.91748047 446.70800781 C-118.819637 449.39543112 -133.6905853 450.3830468 -148.8125 450.3125 C-149.65449951 450.31034485 -150.49649902 450.3081897 -151.36401367 450.30596924 C-203.42875979 450.09411485 -258.31228156 438.79576087 -303 411 C-302.42290342 407.4045182 -301.48065222 404.67669874 -299.69921875 401.5078125 C-299.22291016 400.64994141 -298.74660156 399.79207031 -298.25585938 398.90820312 C-297.73830078 397.98974609 -297.22074219 397.07128906 -296.6875 396.125 C-295.58537347 394.13905531 -294.48517043 392.15204215 -293.38671875 390.1640625 C-292.82259277 389.14344727 -292.2584668 388.12283203 -291.67724609 387.07128906 C-289.04530427 382.25180898 -286.52160586 377.37786051 -284 372.5 C-278.62026725 362.11930167 -273.05834611 351.8454668 -267.42675781 341.59960938 C-264.94163419 337.07161547 -262.4712838 332.53555808 -260 328 C-258.98087524 328.56726807 -258.98087524 328.56726807 -257.94116211 329.14599609 C-249.75245372 333.68790796 -241.42910435 337.92554906 -233 342 C-232.30519531 342.33821777 -231.61039062 342.67643555 -230.89453125 343.02490234 C-196.16359509 359.75641849 -156.01498306 367.39559033 -118.5234375 355.9375 C-107.69512907 351.90836198 -96.92874228 344.75361952 -92 334 C-88.60614622 324.94972325 -87.81181537 316.12068724 -91.09765625 306.9296875 C-102.96170223 281.08655669 -134.07824098 269.85165464 -158.06391907 258.02037048 C-161.96532073 256.09421758 -165.8637223 254.1620372 -169.76171875 252.22900391 C-171.74530898 251.24725639 -173.73032684 250.26838782 -175.71679688 249.29248047 C-217.6453471 228.68153584 -259.57759637 202.6371219 -275.8125 156.4375 C-286.89876539 121.01370925 -283.25012789 83.92382254 -266.6796875 50.96875 C-260.98461985 40.1162754 -253.46023202 30.83724771 -245 22 C-244.32839844 21.26523437 -243.65679687 20.53046875 -242.96484375 19.7734375 C-185.80770818 -40.69560686 -68.64710333 -34.32355166 0 0 Z " fill="#EA002C" transform="translate(316,789)"/>
<path d="M0 0 C1.03189453 0.22478027 2.06378906 0.44956055 3.12695312 0.68115234 C66.79034998 14.90239208 127.3551404 43.06956066 182.8125 76.9375 C183.64974609 77.44861328 184.48699219 77.95972656 185.34960938 78.48632812 C193.97215925 83.771591 202.43081096 89.27713857 210.8125 94.9375 C212.56173182 96.10531811 214.31166263 97.27209037 216.0625 98.4375 C217.3125 99.27083333 218.5625 100.10416667 219.8125 100.9375 C218.24557412 104.07135175 215.09089438 104.36722542 211.9375 105.4375 C181.38539195 116.44708117 153.90510876 137.56092763 139.5 167.125 C125.62298953 196.98513815 127.30316255 230.61509722 137.80371094 261.19921875 C141.71142693 271.80641686 146.64001742 282.03250786 151.35595703 292.296875 C156.83397902 304.24767133 162.16147729 316.16053731 166.375 328.625 C166.68526123 329.5312915 166.99552246 330.43758301 167.31518555 331.37133789 C171.48854807 344.24492287 173.32720418 356.93400879 173.20361328 370.41967773 C173.18747092 372.50375455 173.20361518 374.58590132 173.22265625 376.66992188 C173.24282268 388.99016096 171.37094195 400.87491401 167.125 412.5 C166.87153809 413.2019751 166.61807617 413.9039502 166.35693359 414.62719727 C162.08936256 425.96173282 155.74079006 435.79646958 147.8125 444.9375 C147.14863281 445.74574219 146.48476563 446.55398438 145.80078125 447.38671875 C121.62870093 475.84811462 79.21351299 493.90258438 42.8125 497.9375 C28.16166598 499.00467834 28.16166598 499.00467834 24.0625 496 C18.09798894 487.88163773 17.84867442 477.6926125 16.82843018 467.99316406 C16.65018845 466.36933354 16.4710702 464.74559903 16.29115558 463.12195301 C15.80082412 458.67388435 15.32289664 454.22455821 14.84702492 449.77492261 C14.3306522 444.96727707 13.8027212 440.16089919 13.2762146 435.35435486 C12.36449099 427.01650859 11.4600866 418.67789448 10.56064606 410.3387146 C9.2525732 398.21098353 7.93343399 386.08447583 6.61170778 373.95822608 C4.45726119 354.18930642 2.31178096 334.4194243 0.171875 314.64892578 C-1.88911342 295.60771585 -3.95431592 276.56697109 -6.02539062 257.52685547 C-6.15207244 256.36221197 -6.27875425 255.19756847 -6.40927491 253.99763274 C-7.04586411 248.14540447 -7.68253029 242.29318458 -8.31922293 236.44096756 C-12.77570511 195.47726302 -17.22906666 154.51320974 -21.65821457 113.54653931 C-21.75981786 112.60683969 -21.86142115 111.66714008 -21.96610333 110.69896472 C-22.06687144 109.76698523 -22.16763956 108.83500575 -22.27146125 107.87478447 C-22.37138294 106.9506361 -22.47130463 106.02648773 -22.57425424 105.07433486 C-22.7734132 103.23228536 -22.97255229 101.39023372 -23.17167094 99.54817986 C-24.38952064 88.2833176 -25.61409812 77.01922089 -26.84769416 65.75607204 C-27.44163792 60.33269124 -28.0328725 54.90901632 -28.62326314 49.48524767 C-29.00688474 45.96277351 -29.39201227 42.44047974 -29.78105688 38.91860008 C-30.19619503 35.1548813 -30.60618126 31.39063533 -31.01495361 27.6262207 C-31.19596202 26.00470691 -31.19596202 26.00470691 -31.38062716 24.35043526 C-33.11816052 8.19744083 -33.11816052 8.19744083 -29.1875 1.9375 C-22.73843806 -5.85511651 -8.58546756 -1.91874402 0 0 Z " fill="#FF7A00" transform="translate(538.1875,164.0625)"/>
<path d="M0 0 C7.4600292 3.66254664 13.81965149 8.5381807 20.30175781 13.66503906 C22.51259646 15.40294386 24.7483393 17.10696464 26.98510742 18.8112793 C86.67826303 64.35652606 86.67826303 64.35652606 98 87 C98.2734375 89.171875 98.2734375 89.171875 98.375 91.75 C98.42398437 92.59046875 98.47296875 93.4309375 98.5234375 94.296875 C97.79424961 98.06253187 95.67471628 100.3810802 93 103 C89.99926758 104.86767578 89.99926758 104.86767578 86.64453125 106.4453125 C85.72945801 106.88290894 85.72945801 106.88290894 84.79589844 107.3293457 C82.80786586 108.27558601 80.81067797 109.20040286 78.8125 110.125 C77.41114422 110.78641616 76.01035336 111.44903045 74.61010742 112.11279297 C71.07683512 113.78266929 67.53538828 115.43420951 63.98974609 117.07763672 C62.14316645 117.933634 60.29808167 118.79285402 58.453125 119.65234375 C52.06464967 122.62707219 45.66272283 125.5715661 39.25537109 128.50537109 C33.53669439 131.13097022 27.8312851 133.78510487 22.125 136.4375 C18.57226562 138.08789062 18.57226562 138.08789062 15.01953125 139.73828125 C13.84986816 140.28178223 12.68020508 140.8252832 11.47509766 141.38525391 C5.92124613 143.96591809 0.36697311 146.54567399 -5.1875 149.125 C-6.31027344 149.64642578 -7.43304687 150.16785156 -8.58984375 150.70507812 C-15.66630442 153.99057772 -22.74462236 157.27204388 -29.82421875 160.55078125 C-46.40592651 168.23051676 -62.98455511 175.91606964 -79.5390625 183.65429688 C-90.13943645 188.60711924 -100.75704065 193.52251548 -111.375 198.4375 C-123.86803028 204.22067414 -136.35126493 210.02361237 -148.8125 215.875 C-165.57767127 223.74678172 -182.37628843 231.54567752 -199.18426514 239.32559204 C-203.53969457 241.34166303 -207.89491203 243.35819151 -212.25 245.375 C-213.56704926 245.98489777 -213.56704926 245.98489777 -214.91070557 246.6071167 C-226.55782925 252.00179654 -238.19371328 257.41955893 -249.8125 262.875 C-262.19210361 268.68751338 -274.58626363 274.46752435 -286.99607849 280.21534729 C-291.58256771 282.34059308 -296.16562619 284.47315026 -300.74787903 286.60751343 C-304.45237645 288.33256071 -308.15790598 290.0553842 -311.86355591 291.7779541 C-313.68468554 292.62509224 -315.50539456 293.47313525 -317.32565308 294.32214355 C-344.87249318 307.16844374 -344.87249318 307.16844374 -352 306 C-357.98623761 302.91958189 -360.59659438 297.57872632 -363.34765625 291.68359375 C-364.16774385 288.30993996 -363.6347145 287.0213027 -362 284 C-361.01953344 282.55510192 -359.99476404 281.13968985 -358.9375 279.75 C-330.40126823 239.37300816 -328.87002321 186.16687923 -327.55508423 138.4914856 C-326.3699997 95.6465764 -326.3699997 95.6465764 -316 81 C-315.47019531 80.24203125 -314.94039062 79.4840625 -314.39453125 78.703125 C-305.62784047 67.56251156 -291.56188215 63.19148815 -277.94140625 61.4375 C-272.05027909 60.82086553 -266.16761822 60.85138351 -260.25 60.875 C-259.06277344 60.87693359 -257.87554688 60.87886719 -256.65234375 60.88085938 C-249.42196575 60.9158075 -242.21944028 61.1095567 -235 61.5 C-151.28183835 65.94402461 -73.61635733 41.07538089 -1 1 C-0.67 0.67 -0.34 0.34 0 0 Z " fill="#FF7A00" transform="translate(1291,566)"/>
</svg>
